<?xml version="1.0" standalone="no"?>
<!DOCTYPE svg PUBLIC "-//W3C//DTD SVG 20010904//EN"
 "http://www.w3.org/TR/2001/REC-SVG-20010904/DTD/svg10.dtd">
<svg version="1.0" xmlns="http://www.w3.org/2000/svg"
 width="78.000000pt" height="98.000000pt" viewBox="0 0 78.000000 98.000000"
 preserveAspectRatio="xMidYMid meet">

<g transform="translate(0.000000,98.000000) scale(0.100000,-0.100000)"
fill="#F7CCAC" stroke="none">
<path d="M220 510 c0 -123 1 -130 20 -130 19 0 20 7 20 130 0 123 -1 130 -20
130 -19 0 -20 -7 -20 -130z"/>
<path d="M280 626 c0 -8 10 -16 21 -18 48 -7 51 -68 4 -68 -18 0 -25 -5 -25
-20 0 -16 7 -20 30 -20 59 0 90 67 54 118 -18 26 -84 32 -84 8z"/>
<path d="M470 633 c0 -5 9 -45 19 -90 15 -65 16 -83 6 -83 -11 0 -25 -20 -25
-36 0 -2 11 -4 24 -4 15 0 26 -7 29 -20 6 -22 37 -28 37 -7 0 6 -12 65 -27
130 -22 96 -30 117 -45 117 -10 0 -18 -3 -18 -7z"/>
<path d="M447 580 c-3 -8 -13 -49 -22 -90 -9 -41 -19 -83 -22 -92 -3 -13 1
-18 15 -18 17 0 23 12 36 73 10 48 13 84 7 107 -5 22 -10 29 -14 20z"/>
</g>
</svg>
