<?xml version="1.0" standalone="no"?>
<!DOCTYPE svg PUBLIC "-//W3C//DTD SVG 20010904//EN"
 "http://www.w3.org/TR/2001/REC-SVG-20010904/DTD/svg10.dtd">
<svg version="1.0" xmlns="http://www.w3.org/2000/svg"
 width="210.000000pt" height="78.000000pt" viewBox="0 0 210.000000 78.000000"
 preserveAspectRatio="xMidYMid meet">

<g transform="translate(0.000000,78.000000) scale(0.100000,-0.100000)"
fill="#000000" stroke="none">
<path d="M120 410 c0 -123 1 -130 20 -130 19 0 20 7 20 130 0 123 -1 130 -20
130 -19 0 -20 -7 -20 -130z"/>
<path d="M180 526 c0 -9 9 -16 20 -16 26 0 46 -36 29 -56 -6 -8 -20 -14 -30
-14 -12 0 -19 -7 -19 -20 0 -21 16 -25 57 -14 32 9 49 64 31 101 -10 22 -21
29 -51 31 -28 2 -37 0 -37 -12z"/>
<path d="M370 530 c0 -5 8 -44 17 -86 15 -71 15 -77 0 -86 -26 -14 -21 -38 8
-38 18 0 25 -5 25 -20 0 -14 7 -20 21 -20 17 0 20 5 17 23 -42 200 -53 237
-70 237 -10 0 -18 -4 -18 -10z"/>
<path d="M327 407 c-10 -45 -21 -92 -24 -104 -4 -18 -1 -23 15 -23 16 0 22 11
33 68 26 128 3 184 -24 59z"/>
<path d="M506 474 c-19 -19 -21 -68 -3 -81 6 -6 29 -16 49 -22 46 -15 57 -30
35 -46 -17 -12 -24 -45 -9 -45 22 0 52 34 52 58 0 38 -9 48 -59 63 -47 14 -64
36 -38 51 21 11 22 38 3 38 -8 0 -22 -7 -30 -16z"/>
<path d="M570 474 c0 -22 28 -47 45 -40 21 8 19 22 -7 40 -28 20 -38 20 -38 0z"/>
<path d="M680 470 c-16 -16 -20 -33 -20 -85 0 -52 4 -69 20 -85 25 -25 40 -25
40 0 0 11 -4 20 -10 20 -5 0 -10 11 -10 25 0 24 3 25 55 25 l55 0 0 40 c0 40
-28 80 -57 80 -18 0 -16 -29 2 -36 8 -4 15 -15 15 -25 0 -15 -7 -19 -35 -19
-28 0 -35 4 -35 20 0 11 5 20 10 20 6 0 10 9 10 20 0 11 -4 20 -10 20 -5 0
-19 -9 -30 -20z"/>
<path d="M834 474 c4 -10 19 -57 33 -106 15 -48 32 -88 39 -88 23 0 22 42 -5
123 -23 68 -32 83 -51 85 -18 3 -21 0 -16 -14z"/>
<path d="M929 451 c-12 -39 -5 -102 10 -85 4 5 13 29 20 53 7 23 15 49 18 57
3 9 -2 14 -16 14 -15 0 -23 -10 -32 -39z"/>
<path d="M1020 463 c-31 -39 -25 -137 9 -164 13 -11 27 -19 32 -19 15 0 10 38
-6 44 -8 3 -15 15 -15 26 0 18 6 20 55 20 l55 0 0 44 c0 35 -5 48 -22 60 -12
9 -26 16 -30 16 -14 0 -8 -38 7 -44 8 -3 15 -12 15 -21 0 -11 -11 -15 -40 -15
-43 0 -53 17 -25 40 8 7 15 19 15 26 0 23 -27 16 -50 -13z"/>
<path d="M1190 385 c0 -87 3 -105 15 -105 11 0 15 13 15 54 0 67 14 106 40
113 11 3 20 14 20 24 0 22 -20 25 -39 7 -11 -10 -14 -10 -18 0 -3 6 -11 12
-19 12 -11 0 -14 -21 -14 -105z"/>
<path d="M1414 482 c-22 -14 -34 -51 -34 -102 0 -41 5 -56 25 -75 13 -14 29
-25 35 -25 15 0 12 26 -5 40 -10 8 -15 31 -15 70 0 42 4 59 15 64 8 3 15 12
15 21 0 16 -18 20 -36 7z"/>
<path d="M1470 473 c1 -25 22 -51 38 -46 17 7 15 27 -6 46 -24 22 -32 21 -32
0z"/>
<path d="M1571 464 c-32 -40 -29 -126 4 -159 13 -14 29 -25 35 -25 16 0 12 37
-5 44 -11 4 -15 21 -15 61 0 40 4 57 15 61 19 8 20 44 1 44 -8 0 -24 -12 -35
-26z"/>
<path d="M1640 470 c0 -11 5 -20 10 -20 6 0 10 -28 10 -65 0 -37 -4 -65 -10
-65 -5 0 -10 -9 -10 -20 0 -25 15 -25 40 0 16 16 20 33 20 85 0 52 -4 69 -20
85 -11 11 -24 20 -30 20 -5 0 -10 -9 -10 -20z"/>
<path d="M1750 470 c-17 -17 -20 -33 -20 -105 0 -78 2 -85 20 -85 18 0 20 7
20 85 0 50 4 85 10 85 6 0 10 9 10 20 0 11 -4 20 -10 20 -5 0 -19 -9 -30 -20z"/>
<path d="M1810 476 c0 -7 7 -19 15 -26 11 -9 15 -33 15 -91 0 -72 2 -79 20
-79 18 0 20 7 20 85 0 50 4 85 10 85 6 0 10 9 10 20 0 23 -4 24 -30 10 -13 -7
-21 -7 -25 0 -9 15 -35 12 -35 -4z"/>
<path d="M1920 470 c0 -11 5 -20 10 -20 6 0 10 -35 10 -85 0 -78 2 -85 20 -85
18 0 20 7 20 88 0 73 -3 92 -18 105 -25 23 -42 21 -42 -3z"/>
<path d="M1490 335 c0 -8 -4 -15 -10 -15 -5 0 -10 -9 -10 -20 0 -27 12 -25 40
6 21 21 22 27 10 34 -21 14 -30 12 -30 -5z"/>
<path d="M490 320 c0 -18 26 -40 49 -40 18 0 12 24 -9 43 -27 22 -40 22 -40
-3z"/>
<path d="M763 323 c-23 -15 -31 -43 -14 -43 6 0 22 10 37 23 20 18 24 25 13
29 -8 3 -24 -1 -36 -9z"/>
<path d="M1107 325 c-17 -12 -24 -45 -9 -45 12 0 52 30 52 39 0 16 -25 19 -43
6z"/>
<path d="M1321 321 c-15 -10 -8 -41 9 -41 15 0 25 29 14 40 -5 5 -15 5 -23 1z"/>
</g>
</svg>
