<svg xmlns="http://www.w3.org/2000/svg" width="512" height="512"><path fill="#c0392b" d="M496.013 255.998c0 132.548-107.454 240-240.004 240s-240.004-107.452-240.004-240S123.46 16 256.01 16s240.004 107.451 240.004 240z"/><path fill="#fff" d="M243.957 345.127c-49.261 0-89.16-39.896-89.16-89.135 0-49.186 39.899-89.116 89.16-89.116 24.548 0 46.78 9.925 62.859 26-19.95-28.549-53.033-47.208-90.45-47.208-60.94 0-110.367 49.392-110.367 110.324 0 60.974 49.427 110.34 110.367 110.34 37.417 0 70.5-18.686 90.45-47.183-16.079 16.013-38.311 25.978-62.859 25.978m106.826-136.431 20.578 29.696L406 227.977l-21.9 28.78 20.577 29.748-34.109-11.978-21.901 28.777.794-36.156-34.109-11.982 34.638-10.314.794-36.156"/></svg>