<svg xmlns="http://www.w3.org/2000/svg" xmlns:xlink="http://www.w3.org/1999/xlink" width="512" height="512"><defs><g id="b"><use width="1235" height="650" transform="rotate(-144)" xlink:href="#a"/><use width="1235" height="650" transform="rotate(-72)" xlink:href="#a"/><use width="1235" height="650" xlink:href="#a"/><use width="1235" height="650" transform="rotate(72)" xlink:href="#a"/><use width="1235" height="650" transform="rotate(144)" xlink:href="#a"/></g><g id="c"><use width="1235" height="650" x="-.252" xlink:href="#b"/><use width="1235" height="650" x="-.126" xlink:href="#b"/><use width="1235" height="650" xlink:href="#b"/><use width="1235" height="650" x=".126" xlink:href="#b"/><use width="1235" height="650" x=".252" xlink:href="#b"/></g><path id="a" fill="#fff" d="m0-.5.162.5h-.324z" transform="scale(.0616)"/></defs><path fill="#b22234" d="M256 16a240 240 0 0 0-127.715 36.924h255.08A240 240 0 0 0 256 16z"/><path fill="#fff" d="M128.285 52.924a240 240 0 0 0-45.094 36.922h345.9a240 240 0 0 0-45.726-36.922h-255.08z"/><path fill="#b22234" d="M83.191 89.846a240 240 0 0 0-29.123 36.924h404.139a240 240 0 0 0-29.115-36.924h-345.9z"/><path fill="#fff" d="M54.068 126.77a240 240 0 0 0-19.543 36.921H477.3a240 240 0 0 0-19.092-36.921H54.068z"/><path fill="#b22234" d="M34.525 163.691a240 240 0 0 0-11.775 36.924h466.482a240 240 0 0 0-11.933-36.924H34.525z"/><path fill="#fff" d="M22.75 200.615a240 240 0 0 0-5.826 36.924h478.295a240 240 0 0 0-5.987-36.924H22.75z"/><path fill="#b22234" d="M16.924 237.54A240 240 0 0 0 16 256a240 240 0 0 0 .781 18.46h478.295A240 240 0 0 0 496 256a240 240 0 0 0-.781-18.46H16.924z"/><path fill="#fff" d="M16.781 274.46a240 240 0 0 0 5.987 36.925H489.25a240 240 0 0 0 5.826-36.924H16.781z"/><path fill="#b22234" d="M22.768 311.385A240 240 0 0 0 34.7 348.309h442.774a240 240 0 0 0 11.775-36.924H22.768z"/><path fill="#fff" d="M34.701 348.309a240 240 0 0 0 19.092 36.921h404.139a240 240 0 0 0 19.543-36.921H34.7z"/><path fill="#b22234" d="M53.793 385.23a240 240 0 0 0 29.115 36.924h345.9a240 240 0 0 0 29.124-36.924H53.793z"/><path fill="#fff" d="M82.908 422.154a240 240 0 0 0 45.727 36.922h255.08a240 240 0 0 0 45.094-36.922h-345.9z"/><path fill="#b22234" d="M128.635 459.076A240 240 0 0 0 256 496a240 240 0 0 0 127.715-36.924h-255.08z"/><path fill="#3c3b6e" d="M256 16A240 240 0 0 0 16 256a240 240 0 0 0 .848 19H275V16.951A240 240 0 0 0 256 16z"/><path fill="#fff" d="M170.104 32.184a240 240 0 0 0-9.516 3.705l3.506 2.664-2.371 7.662 6.28-4.69 6.466 4.914-2.428-7.93 6.465-4.825h-7.944l-.458-1.5zm40.71-6.556-2.494 8.055h-7.916l6.408 4.87-2.372 7.661 6.281-4.689 6.465 4.914-2.427-7.928 6.464-4.828h-7.942l-2.467-8.055zm42.717 0-2.493 8.055h-7.916l6.407 4.87-2.371 7.661 6.28-4.689 6.466 4.914-2.428-7.928 6.465-4.828h-7.943l-2.467-8.055zM108.354 67.145a240 240 0 0 0-3.364 2.554l5.403 4.108-2.04-6.662zm38.383-14.15-2.493 8.055h-7.916l6.408 4.87-2.372 7.661 6.28-4.689 6.466 4.914-2.428-7.928 6.465-4.828h-7.943l-2.467-8.055zm42.718 0-2.494 8.055h-7.915l6.407 4.87-2.371 7.661 6.28-4.689 6.466 4.914-2.428-7.928 6.464-4.828h-7.942l-2.467-8.055zm42.718 0-2.494 8.055h-7.916l6.408 4.87-2.372 7.661 6.28-4.689 6.466 4.914-2.428-7.928 6.465-4.828h-7.943l-2.466-8.055zM84.93 87.771a240 240 0 0 0-6.938 7.668l-1.705 5.508 6.281-4.69 6.465 4.915-2.428-7.928 6.465-4.828h-7.943l-.197-.645zm40.449-7.41-2.494 8.055h-7.916l6.408 4.87-2.372 7.661 6.28-4.689 6.466 4.914-2.428-7.928 6.465-4.828h-7.943l-2.466-8.055zm42.717 0-2.493 8.055h-7.916l6.407 4.87-2.371 7.661 6.28-4.689 6.466 4.914-2.428-7.928 6.465-4.828h-7.943l-2.467-8.055zm42.718 0-2.494 8.055h-7.916l6.408 4.87-2.372 7.661 6.281-4.689 6.465 4.914-2.427-7.928 6.464-4.828h-7.942l-2.467-8.055zm42.717 0-2.493 8.055h-7.916l6.407 4.87-2.371 7.661 6.28-4.689 6.466 4.914-2.428-7.928 6.465-4.828h-7.943l-2.467-8.055zM63.115 113.646a240 240 0 0 0-6.428 8.99l-1.757 5.678 6.279-4.689 6.467 4.914-2.428-7.928 6.463-4.828H63.77l-.655-2.137zm40.905-5.918-2.494 8.055H93.61l6.408 4.87-2.372 7.661 6.281-4.689 6.466 4.914-2.428-7.928 6.464-4.828h-7.942l-2.467-8.055zm42.717 0-2.493 8.055h-7.916l6.408 4.87-2.372 7.661 6.28-4.689 6.466 4.914-2.428-7.928 6.465-4.828h-7.943l-2.467-8.055zm42.718 0-2.494 8.055h-7.915l6.407 4.87-2.371 7.661 6.28-4.689 6.466 4.914-2.428-7.928 6.464-4.828h-7.942l-2.467-8.055zm42.718 0-2.494 8.055h-7.916l6.408 4.87-2.372 7.661 6.28-4.689 6.466 4.914-2.428-7.928 6.465-4.828h-7.943l-2.466-8.055zM44.396 143.15a240 240 0 0 0-4.148 8.145l6.068 4.611-2.427-7.927 6.465-4.829h-5.958zm38.265-8.055-2.493 8.055h-7.916l6.407 4.87-2.371 7.661 6.28-4.689 6.466 4.914-2.428-7.928 6.465-4.828h-7.943l-2.467-8.055zm42.718 0-2.494 8.055h-7.916l6.408 4.87-2.372 7.661 6.28-4.689 6.466 4.914-2.428-7.928 6.465-4.828h-7.943l-2.466-8.055zm42.717 0-2.493 8.055h-7.916l6.407 4.87-2.371 7.661 6.28-4.689 6.466 4.914-2.428-7.928 6.465-4.828h-7.943l-2.467-8.055zm42.718 0-2.494 8.055h-7.916l6.408 4.87-2.372 7.661 6.281-4.689 6.465 4.914-2.427-7.928 6.464-4.828h-7.942l-2.467-8.055zm42.717 0-2.493 8.055h-7.916l6.407 4.87-2.371 7.661 6.28-4.689 6.466 4.914-2.428-7.928 6.465-4.828h-7.943l-2.467-8.055zM61.302 162.461l-2.493 8.055h-7.916l6.408 4.87-2.372 7.661 6.28-4.689 6.466 4.914-2.428-7.928 6.465-4.828h-7.943l-2.467-8.055zm42.718 0-2.494 8.055H93.61l6.408 4.87-2.372 7.661 6.281-4.689 6.466 4.914-2.428-7.928 6.464-4.828h-7.942l-2.467-8.055zm42.717 0-2.493 8.055h-7.916l6.408 4.87-2.372 7.661 6.28-4.689 6.466 4.914-2.428-7.928 6.465-4.828h-7.943l-2.467-8.055zm42.718 0-2.494 8.055h-7.915l6.407 4.87-2.371 7.661 6.28-4.689 6.466 4.914-2.428-7.928 6.464-4.828h-7.942l-2.467-8.055zm42.718 0-2.494 8.055h-7.916l6.408 4.87-2.372 7.661 6.28-4.689 6.466 4.914-2.428-7.928 6.465-4.828h-7.943l-2.466-8.055zm-192.23 27.367-2.493 8.055h-7.916l6.408 4.87-2.372 7.661 6.281-4.689 6.465 4.914-2.428-7.928 6.465-4.828H42.41l-2.466-8.055zm42.718 0-2.493 8.055h-7.916l6.407 4.87-2.371 7.661 6.28-4.689 6.466 4.914-2.428-7.928 6.465-4.828h-7.943l-2.467-8.055zm42.718 0-2.494 8.055h-7.916l6.408 4.87-2.372 7.661 6.28-4.689 6.466 4.914-2.428-7.928 6.465-4.828h-7.943l-2.466-8.055zm42.717 0-2.493 8.055h-7.916l6.407 4.87-2.371 7.661 6.28-4.689 6.466 4.914-2.428-7.928 6.465-4.828h-7.943l-2.467-8.055zm42.718 0-2.494 8.055h-7.916l6.408 4.87-2.372 7.661 6.281-4.689 6.465 4.914-2.427-7.928 6.464-4.828h-7.942l-2.467-8.055zm42.717 0-2.493 8.055h-7.916l6.407 4.87-2.371 7.661 6.28-4.689 6.466 4.914-2.428-7.928 6.465-4.828h-7.943l-2.467-8.055zM61.302 217.195l-2.493 8.055h-7.916l6.408 4.87-2.372 7.661 6.28-4.689 6.466 4.914-2.428-7.928 6.465-4.828h-7.943l-2.467-8.055zm42.718 0-2.494 8.055H93.61l6.408 4.87-2.372 7.661 6.281-4.689 6.466 4.914-2.428-7.928 6.464-4.828h-7.942l-2.467-8.055zm42.717 0-2.493 8.055h-7.916l6.408 4.87-2.372 7.661 6.28-4.689 6.466 4.914-2.428-7.928 6.465-4.828h-7.943l-2.467-8.055zm42.718 0-2.494 8.055h-7.915l6.407 4.87-2.371 7.661 6.28-4.689 6.466 4.914-2.428-7.928 6.464-4.828h-7.942l-2.467-8.055zm42.718 0-2.494 8.055h-7.916l6.408 4.87-2.372 7.661 6.28-4.689 6.466 4.914-2.428-7.928 6.465-4.828h-7.943l-2.466-8.055zm-192.23 27.366-2.493 8.055h-7.916l6.408 4.87-2.372 7.661 6.281-4.689 6.465 4.914-2.428-7.928 6.465-4.828H42.41l-2.466-8.055zm42.718 0-2.493 8.055h-7.916l6.407 4.87-2.371 7.661 6.28-4.689 6.466 4.914-2.428-7.928 6.465-4.828h-7.943l-2.467-8.055zm42.718 0-2.494 8.055h-7.916l6.408 4.87-2.372 7.661 6.28-4.689 6.466 4.914-2.428-7.928 6.465-4.828h-7.943l-2.466-8.055zm42.717 0-2.493 8.055h-7.916l6.407 4.87-2.371 7.661 6.28-4.689 6.466 4.914-2.428-7.928 6.465-4.828h-7.943l-2.467-8.055zm42.718 0-2.494 8.055h-7.916l6.408 4.87-2.372 7.661 6.281-4.689 6.465 4.914-2.427-7.928 6.464-4.828h-7.942l-2.467-8.055zm42.717 0-2.493 8.055h-7.916l6.407 4.87-2.371 7.661 6.28-4.689 6.466 4.914-2.428-7.928 6.465-4.828h-7.943l-2.467-8.055z"/></svg>