<svg xmlns="http://www.w3.org/2000/svg" data-name="Layer 1" viewBox="0 0 3257.32 1769.87"><path fill="#e6e6e6" d="M2620.19 593.31a759.62 759.62 0 0 0-206.46 28.44c-168.78-217.32-432.57-357.21-729.06-357.21-439.77 0-807.61 307.68-900.12 719.49A181.85 181.85 0 0 0 569 1198.28c-199.77 51.34-347.39 232.66-347.39 448.45A460.85 460.85 0 0 0 287 1884h2872.88c135.09-136.92 218.49-325 218.49-532.5.01-418.74-339.45-758.19-758.18-758.19Z" transform="translate(-121.06 -114.13)"/><path fill="#56b1da" d="M1677.45 388.28h43.16v313.2h-43.16zM1737.51 357.84h43.16v343.63h-43.16zM1797.57 335.97h43.16v365.5h-43.16zM1857.63 268.28h43.16v433.19h-43.16zM1917.69 214.68h43.16v486.8h-43.16zM1977.75 175.26h43.16v526.21h-43.16zM2035.91 152.87h44.11v548.6h-44.11z"/><path fill="none" stroke="#73789c" stroke-miterlimit="10" stroke-width="17" d="m1080.22 554.08 193.79-178.53 41.35 118.03L1597.6 233.6l36.9 80.99 217.99-202.66"/><path fill="#73789c" d="m1885.94 78.26-97.53 25.77 71.76 71.76 25.77-97.53z"/><circle cx="1273.19" cy="373.18" r="26.98" fill="#56b1da"/><circle cx="1597.65" cy="233.6" r="26.98" fill="#56b1da"/><path fill="#56b1da" d="M550.51 1156.3s-17.95-20.46-15.85-53.54-25.71-38.61-34.73-25.15-4.46 48.14 50.58 78.69ZM579 1166.7s-.77-27.2 21.94-51.34 4.82-46.14-10.7-41.52-34.1 34.22-11.24 92.86ZM577.21 1170.18s-26.08 7.76-41.91 36.89-42.32 19-42.79 2.81 21.85-43.14 84.7-39.7ZM625.28 1201.63s-26.08 7.76-41.91 36.89-42.32 19-42.79 2.81 21.84-43.14 84.7-39.7ZM661 1241s-26.08 7.77-41.91 36.89-42.32 19-42.79 2.81 21.89-43.18 84.7-39.7ZM703.21 1291.53s-26.08 7.77-41.91 36.89-42.32 19-42.79 2.81 21.85-43.13 84.7-39.7ZM624.8 1201.43s-.77-27.2 21.94-51.34 4.82-46.14-10.7-41.52-34.14 34.23-11.24 92.86ZM666.63 1243.77s-.77-27.2 21.94-51.34 4.82-46.14-10.7-41.52-34.14 34.23-11.24 92.86ZM704.65 1289.84s-.77-27.2 21.94-51.34 4.82-46.14-10.7-41.52-34.15 34.23-11.24 92.86Z" transform="translate(-121.06 -114.13)"/><path fill="#56b1da" d="M820.43 1517.93a2.81 2.81 0 0 1-2.21-1.95c-.2-.66-20.86-67.23-65.34-145.31-41-71.93-111.14-168.64-212.7-220.89a2.81 2.81 0 0 1 2.57-5c102.83 52.91 173.72 150.59 215.08 223.23 44.76 78.6 65.56 145.66 65.77 146.33a2.81 2.81 0 0 1-3.16 3.6Z" transform="translate(-121.06 -114.13)"/><path fill="#fff" d="M1804.62 430.23s21.52-38.62 32.5-40.46-5.34 37.24-28.49 50.58Z" transform="translate(-121.06 -114.13)"/><path fill="#292b3b" d="M1803.3 426.29c5.19 4.58 10.39 9.1 15.34 13-74.77 86.06-156.84 119.71-211.44-1.24-8.35-18.5-2.62-17.43 8.11-22.78 1.44-2.88.62-2.1 0 0 10.73-5.35 17.58-7.21 23.87 10.31 41.16 114.51 95.11 56.42 164.12.71ZM1651.38 611.25c9 44.18 15.3 90.09 6.49 125.76h-78.73c2.93-31 2.86-67.5.11-110.09 24.23-2.32 47.83-14.56 72.13-15.67Z" transform="translate(-121.06 -114.13)"/><path fill="#ffcecc" d="M1567.6 638.07c11.72-3.09 24-4.39 52.34-2.24h.58c20.89 1.63 37.11-17.94 31.37-38.09-23.3-81.8-24-124.75-17.12-149.71a41.34 41.34 0 0 0-10.83-40.64l-4.21-4.12c-19.57-19.11-52.51-11-60.85 15a222 222 0 0 0-7.31 30.19c-9.34 54.39-4.76 113.66 16.03 189.61Z" transform="translate(-121.06 -114.13)"/><path fill="#292b3b" d="M1544.7 446.09c2-11.44 1.08-17.87 3.88-26.59 6.61-20.64 18.17-32.11 36.77-25.62-7.29 41 46.47 286.83 45.89 286.78-28.34-2.15-45 .21-56.73 3.3-20.8-75.96-39.15-183.53-29.81-237.87Z" transform="translate(-121.06 -114.13)"/><path fill="#fff" d="M1585.73 355.58c6.81 24.82 29.63 40.2 44.8 36s16.95-26.29 10.14-51.12-22.58-34.08-37.75-29.92-24 20.22-17.19 45.04Z" transform="translate(-121.06 -114.13)"/><path fill="#fff" d="m1589.75 356.91 27 .57c-.08 3.7-1.43 38.87-4.35 51.84-1.46 3.93-8.35 5-15.37 2.37-6.32-2.35-10.56-6.87-10.3-10.61 1.75-7.79 2.75-31.24 3.02-44.17ZM1531.27 597s38.09 22.43 39.67 33.46-37.1-6.23-49.88-29.69Z" transform="translate(-121.06 -114.13)"/><path fill="#292b3b" d="M1541.29 600c-5 4.77-10 9.55-14.31 14.15-79.19-82-105.54-166.71 19.73-210.52 19.16-6.7 17.59-1.09 22 10.07 2.74 1.69 2 .8 0 0 4.39 11.16 5.64 18.14-12.36 22.88-117.67 30.96-64.53 89.78-15.06 163.42ZM1615 396a36.65 36.65 0 0 1 13.64 8.42l4.21 4.12a41.34 41.34 0 0 1 10.83 40.64c-8 29.19-16.52 64.83 9 151.38C1627.27 588.8 1607.74 437 1615 396ZM1590.47 370.72s10.69 18 23.46 22.69c13.74 5 25.34 2.45 29.51-8.56 1-2.69 2.49-13.66 1-17.81 0 0-2.18 10.42-6.16 14.32-2.29 2.24-11.14 6.22-19.11 2.54s-15.17-14.81-17.41-16.9-13.68-.08-11.29 3.72ZM1588.43 360.3s5-1.38 5.63-4.6-1-12.72 0-15.48 4-5.83 3.57-8.74 5.06-4.45 8.43-3.53 16.56 2.91 19.16-2.61 7.66-.31 8.58-4-7.86-16.25-19.87-15.79-33.32 5.21-34.24 24.83c0 .03-12.87 17.04 8.74 29.92Z" transform="translate(-121.06 -114.13)"/><path fill="#fff" d="M1577.1 365.47c1.59 5.78 9.35 11.59 13.54 10.44s3.95-6.12 2.36-11.9-6.46-10.25-10.65-9.1-6.83 4.78-5.25 10.56Z" transform="translate(-121.06 -114.13)"/><rect width="17.37" height="10.63" x="1605.47" y="343.59" fill="none" stroke="#292b3b" stroke-miterlimit="10" stroke-width="1.38" rx="1.82" ry="1.82" transform="rotate(-20.71 1241.623 623.125)"/><rect width="17.37" height="10.63" x="1628.37" y="334.93" fill="none" stroke="#292b3b" stroke-miterlimit="10" stroke-width="1.38" rx="1.82" ry="1.82" transform="rotate(-20.71 1264.53 614.445)"/><path fill="none" stroke="#292b3b" stroke-miterlimit="10" stroke-width="1.38" d="m1500.72 230.38 6.65-2.51"/><path fill="#a0daea" d="M825.91 1305.14c102.58 97.27 250.83 107.47 250.83 107.47l-371.47-352.25s18.06 147.51 120.64 244.78Z" transform="translate(-121.06 -114.13)"/><path fill="#b5e8ff" d="m705.27 1060.36 371.47 352.24s-18.05-147.51-120.63-244.78-250.84-107.46-250.84-107.46Z" transform="translate(-121.06 -114.13)"/><path fill="#56b1da" d="M706.46 1446.47c-.21-.2-21.29-19.94-54.49-42.73-30.57-21-78-48.9-130.15-62.78l1.72-6.47c23.49 6.25 48 15.77 72.76 28.3a522 522 0 0 1 59.57 35.5c33.59 23.06 55 43.1 55.18 43.3Z" transform="translate(-121.06 -114.13)"/><circle cx="517.34" cy="1337.49" r="12.42" fill="#56b1da" transform="rotate(-46.36 323.424 1421.673)"/><circle cx="546.01" cy="1298.78" r="12.42" fill="#56b1da" transform="rotate(-46.35 352.284 1383.21)"/><circle cx="564.42" cy="1407.49" r="12.42" fill="#56b1da" transform="rotate(-46.35 370.7 1491.928)"/><path fill="#56b1da" d="m584.17 1357.19-5 4.45c-1-1.07-23.46-26.53-34.15-55.31l6.28-2.33c10.26 27.61 32.65 52.94 32.87 53.19ZM618.44 1381.49c-.23 0-23 5-47.68 24.14l-4.1-5.29c26-20.19 49.44-25.21 50.42-25.41Z" transform="translate(-121.06 -114.13)"/><path fill="#a0daea" d="M946.21 1172.19c26.81 138.8 141.45 233.37 141.45 233.37l-97.1-502.63s-71.16 130.47-44.35 269.26Z" transform="translate(-121.06 -114.13)"/><path fill="#b5e8ff" d="m990.55 902.93 97.1 502.63s71.16-130.46 44.34-269.26-141.44-233.37-141.44-233.37Z" transform="translate(-121.06 -114.13)"/><path fill="#b5e8ff" d="M860.81 1334.94c-155.84 0-287.26 104.52-328 247.27h656c-40.74-142.76-172.16-247.27-328-247.27ZM1755.64 1334.94c-155.84 0-287.26 104.52-328 247.27h656c-40.74-142.76-172.16-247.27-328-247.27Z" transform="translate(-121.06 -114.13)"/><path fill="#b5e8ff" d="M1329.32 1229c-222.59 0-410.31 149.29-468.51 353.2h937c-58.18-203.9-245.89-353.2-468.49-353.2Z" transform="translate(-121.06 -114.13)"/><path fill="#30637a" d="M2916.16 758.05s22.26-39.8 7.26-93.27 28.65-72.26 48.12-53.35 24.14 77.32-55.38 146.62ZM2873 785.05s-8.24-44.85-53.9-76.47-24-73.93 3-71.78 67.98 44.2 50.9 148.25ZM2877.25 790.12s45.46 3.61 81.58 45.8 76 16.34 71.1-10.35-50.88-63.04-152.68-35.45ZM2809.47 858.45s45.46 3.61 81.58 45.8 76 16.34 71.1-10.35-50.88-63.04-152.68-35.45ZM2764.6 935.4s45.46 3.61 81.58 45.8 76 16.34 71.1-10.35-50.88-63.04-152.68-35.45ZM2713.17 1033s45.46 3.61 81.58 45.8 76 16.34 71.1-10.35-50.85-63.02-152.68-35.45ZM2810.18 858s-8.24-44.85-53.9-76.47-24-73.93 3-71.78 67.94 44.12 50.9 148.25ZM2756.43 942s-8.24-44.85-53.9-76.47-24-73.93 3-71.78 67.94 44.13 50.9 148.25ZM2710.22 1030.75s-8.24-44.85-53.9-76.47-24-73.93 3-71.78 67.95 44.16 50.9 148.25Z" transform="translate(-121.06 -114.13)"/><path fill="#30637a" d="M2598.81 1445.32a4.71 4.71 0 0 0 4.32-4.29c.1-1.16 10.69-117.46 56.3-261 42-132.19 123.21-315.2 271.39-436.33a4.71 4.71 0 0 0-6-7.3c-150 122.64-232.07 307.5-274.48 441-45.89 144.46-56.54 261.61-56.64 262.78a4.71 4.71 0 0 0 4.28 5.11 4.88 4.88 0 0 0 .83.03ZM3051.73 1159s30.43-20 39.5-63.42 46.91-40.65 53.75-20.08-11.38 63.64-93.25 83.5ZM3011.22 1162.21s10.68-34.82-10-74 10.2-61.23 28.59-49.75 31.83 56.27-18.59 123.75ZM3012.34 1167.36s30.88 19.3 40.94 62.5 47.83 39.57 54.2 18.85-12.83-63.41-95.14-81.35ZM2939.14 1190.82s30.88 19.3 40.94 62.5 47.83 39.57 54.2 18.85-12.83-63.41-95.14-81.35ZM2879 1228.82s30.88 19.3 40.94 62.5 47.83 39.57 54.2 18.85-12.83-63.41-95.14-81.35ZM2806.61 1279.06s30.88 19.3 40.94 62.5 47.83 39.57 54.2 18.85-12.83-63.41-95.14-81.35ZM2939.82 1190.73s10.68-34.82-10-74 10.2-61.23 28.59-49.75 31.83 56.27-18.59 123.75ZM2870.8 1230.47s10.68-34.82-10-74 10.2-61.23 28.59-49.75 31.82 56.28-18.59 123.75ZM2805.36 1276.37s10.68-34.82-10-74 10.2-61.23 28.59-49.75 31.82 56.26-18.59 123.75Z" transform="translate(-121.06 -114.13)"/><path fill="#30637a" d="M2574.82 1529.4a3.77 3.77 0 0 0 3.55-1.72c.5-.78 50.83-79.3 136-164.19 78.46-78.2 203.39-178 353-209.25a3.76 3.76 0 0 0-1.54-7.37c-151.48 31.65-277.7 132.44-356.91 211.42-85.72 85.47-136.42 164.57-136.92 165.36a3.76 3.76 0 0 0 2.8 5.77Z" transform="translate(-121.06 -114.13)"/><path fill="#448cad" d="M2176.5 1402.46c-120.64 0-222.37 80.91-253.91 191.42h507.83c-31.55-110.51-133.28-191.42-253.92-191.42ZM2869.21 1402.46c-120.64 0-222.37 80.91-253.91 191.42h507.83c-31.55-110.51-133.28-191.42-253.92-191.42Z" transform="translate(-121.06 -114.13)"/><path fill="#448cad" d="M2539.19 1320.46c-172.32 0-317.63 115.57-362.69 273.42h725.38c-45.06-157.88-190.38-273.42-362.69-273.42Z" transform="translate(-121.06 -114.13)"/><path fill="#56b1da" d="M2638.1 1692.72H961.9a56.09 56.09 0 0 1 0-112.18h1676.2a56.09 56.09 0 0 1 0 112.18Z" transform="translate(-121.06 -114.13)"/><path fill="#d0f1f2" d="M314.59 434.93c-91.95 0-169.49 61.67-193.53 145.9h387.05c-24.04-84.23-101.58-145.9-193.52-145.9ZM842.55 434.93c-91.95 0-169.49 61.67-193.53 145.9h387.05C1012 496.6 934.5 434.93 842.55 434.93Z" transform="translate(-121.06 -114.13)"/><path fill="#d0f1f2" d="M591 372.43c-131.34 0-242.09 88.08-276.43 208.4h552.88c-34.34-120.31-145.1-208.4-276.45-208.4Z" transform="translate(-121.06 -114.13)"/><path fill="#fff" d="M345.64 559.89A124.36 124.36 0 0 0 226.09 650h239.09a124.36 124.36 0 0 0-119.54-90.11ZM671.77 559.89A124.36 124.36 0 0 0 552.23 650h239.09a124.36 124.36 0 0 0-119.55-90.11Z" transform="translate(-121.06 -114.13)"/><path fill="#fff" d="M516.39 521.28A177.64 177.64 0 0 0 345.64 650h341.51a177.64 177.64 0 0 0-170.76-128.72ZM835.59 155.39a89.53 89.53 0 0 0-86.06 64.88h172.13a89.53 89.53 0 0 0-86.07-64.88ZM1070.38 155.39a89.53 89.53 0 0 0-86.06 64.88h172.12a89.53 89.53 0 0 0-86.06-64.88Z" transform="translate(-121.06 -114.13)"/><path fill="#fff" d="M958.52 127.6a127.88 127.88 0 0 0-122.93 92.68h245.86a127.88 127.88 0 0 0-122.93-92.68Z" transform="translate(-121.06 -114.13)"/><path fill="#d0f1f2" d="M2739.61 169.09a177 177 0 0 0-170.19 128.3h340.38a177 177 0 0 0-170.19-128.3ZM3203.91 169.09a177 177 0 0 0-170.19 128.3h340.38a177 177 0 0 0-170.19-128.3Z" transform="translate(-121.06 -114.13)"/><path fill="#d0f1f2" d="M2982.71 114.13c-115.5 0-212.9 77.46-243.1 183.27h486.19c-30.19-105.81-127.59-183.27-243.09-183.27Z" transform="translate(-121.06 -114.13)"/><path fill="#38748f" d="M1240.56 357.68a62.53 62.53 0 0 0-60.11 45.32h120.22a62.53 62.53 0 0 0-60.11-45.32ZM1404.55 357.68a62.53 62.53 0 0 0-60.11 45.32h120.22a62.53 62.53 0 0 0-60.11-45.32Z" transform="translate(-121.06 -114.13)"/><path fill="#38748f" d="M1326.42 338.27a89.32 89.32 0 0 0-85.86 64.73h171.72a89.32 89.32 0 0 0-85.86-64.73Z" transform="translate(-121.06 -114.13)"/><path fill="#56b1da" d="M2253.53 671.07h93.44v168.19h-93.44z" transform="rotate(180 2239.725 698.1)"/><path fill="#56b1da" d="m2179.2 786.13 76.74-76.98h-153.49l76.75 76.98z"/><path fill="#ffa9a6" d="M2009.01 509.61h93.44V677.8h-93.44z"/><path fill="#ffa9a6" d="m2055.73 448.61-76.75 76.99h153.5l-76.75-76.99z"/><path fill="#fff" d="M883.95 1408.31a29.93 29.93 0 0 0 29.93-29.93 29.93 29.93 0 0 0 29.93 29.93 29.93 29.93 0 0 0-29.93 29.93 29.93 29.93 0 0 0-29.93-29.93ZM799.53 1515.8a16.7 16.7 0 0 0 16.7-16.7 16.7 16.7 0 0 0 16.7 16.7 16.7 16.7 0 0 0-16.7 16.7 16.7 16.7 0 0 0-16.7-16.7Z" transform="translate(-121.06 -114.13)"/><path fill="#838aaa" d="M1800 560.15a437.57 437.57 0 1 0 0 875.14h.72V560.16Z" transform="translate(-121.06 -114.13)"/><path fill="#73789c" d="M2237.57 997.72a437.53 437.53 0 0 0-436.85-437.56v875.12a437.55 437.55 0 0 0 436.85-437.56Z" transform="translate(-121.06 -114.13)"/><path fill="#a3acc9" d="M2248.59 997.71a446.8 446.8 0 0 0-115.17-299.77l.4-.23-9.65-10.08a447.32 447.32 0 0 0-312.57-138.36q-5.78-.15-11.6-.15t-11.6.15a447.33 447.33 0 0 0-312.59 138.36l-9.65 10.08.4.24a446.8 446.8 0 0 0-115.16 299.76c0 116.82 44.9 223.34 118.33 303.24l-.41.24 10 10.19c85.12 87 199 134.93 320.71 134.93s235.59-47.92 320.71-134.93l10-10.19-.41-.24c73.36-79.95 118.26-186.42 118.26-303.24Zm-192.39-11c-1.16-84.94-15.65-166-41.7-235.47 36-11.15 69.41-25.21 99.42-42a424.9 424.9 0 0 1 112.48 277.45Zm-52 282.9a509.92 509.92 0 0 1 90.14 36.52 426.21 426.21 0 0 1-196.44 106.77c31.63-22.68 60.54-56.51 85.14-100.39a474.89 474.89 0 0 0 21.2-42.92Zm-40.43 32.14c-44.29 79-102.46 122.52-163.8 122.52s-119.52-43.51-163.8-122.52q-10.2-18.21-19-38.17c56.36-14.81 118.42-22.63 182.82-22.63s126.45 7.82 182.82 22.63q-8.81 19.9-19.01 38.15ZM1617 1312.51c24.6 43.88 53.51 77.71 85.14 100.39a426.21 426.21 0 0 1-196.48-106.79 509.9 509.9 0 0 1 90.14-36.52 474.91 474.91 0 0 0 21.2 42.92Zm183-93.63c-67.36 0-132.34 8.34-191.35 24.14-26.71-68.43-41.61-149.23-42.8-234.29h468.3c-1.19 85.05-16.09 165.85-42.8 234.29-59.01-15.8-123.99-24.14-191.35-24.14Zm-234.15-232.19c1.16-83 15.38-162 40.89-229.32C1666.2 773.5 1731.83 782 1800 782s133.8-8.51 193.26-24.64c25.51 67.36 39.73 146.31 40.89 229.31ZM1800 571.17h.21c61.27.1 119.36 43.6 163.6 122.52a455.86 455.86 0 0 1 21.19 43.1C1928.07 752 1865.3 760 1800 760s-128.07-8-185-23.17a455.89 455.89 0 0 1 21.15-43.09c44.24-78.92 102.33-122.42 163.6-122.52Zm206.31 159.51a479 479 0 0 0-23.31-47.76c-24.6-43.88-53.51-77.72-85.14-100.39A426.29 426.29 0 0 1 2098 692.85a504.39 504.39 0 0 1-91.69 37.83ZM1702.1 582.52c-31.63 22.68-60.54 56.48-85.1 100.4a479 479 0 0 0-23.27 47.77 504.39 504.39 0 0 1-91.73-37.84 426.29 426.29 0 0 1 200.1-110.33Zm-116.6 168.7c-26.05 69.5-40.55 150.53-41.7 235.47h-170.2a424.9 424.9 0 0 1 112.48-277.43c30.01 16.74 63.44 30.8 99.42 41.96Zm-41.7 257.52c1.18 87 16.36 169.8 43.59 240.38-35.36 10.83-68.29 24.45-97.95 40.66a425 425 0 0 1-115.84-281Zm468.82 240.38c27.23-70.58 42.41-153.43 43.59-240.38h170.2a425 425 0 0 1-115.84 281c-29.66-16.17-62.57-29.79-97.95-40.62Z" transform="translate(-121.06 -114.13)"/><path fill="#656c8c" d="m1205.05 1342.58-33.36-337.26-145 19.09-30.18 314.27-32.7-305.99-101.73 13.4 48.68 436.82h147.15l38.97-363.49 38.99 363.49h142.27l55.59-498.93-93.17 12.27-35.51 346.33zM1753.68 1342.58l-40.41-408.57-130.92 17.24-37.21 387.43-40.31-377.22-102.05 13.43 56.61 508.02h147.15l38.98-363.49 38.98 363.49h142.27l63.77-572.24-93.84 12.36-43.02 419.55zM2495.8 715.28l-60.36-185-106.69 207.2 36.82-4.89-63.25 609.99-47.47-479.88L2138 878.09l-44.22 460.59-47.94-448.46-102.36 13.48 64.54 579.21h147.15l38.98-363.49 38.98 363.49h142.27l84.46-762.85 35.94-4.78z"/><path fill="#ffa9a6" d="m1163.05 1342.54-33.36-337.26-145 19.09-30.18 314.28-32.7-306-101.73 13.4 48.68 436.82h147.15l38.97-363.48 38.99 363.48h142.27l55.59-498.92-93.17 12.26-35.51 346.33zM1711.68 1342.54l-40.41-408.57-130.92 17.24-37.21 387.44-40.31-377.23-102.05 13.43 56.61 508.02h147.15l38.98-363.48 38.98 363.48h142.27l63.77-572.24-93.84 12.36-43.02 419.55zM2453.8 715.24l-60.36-184.99-106.69 207.19 36.82-4.89-63.25 609.99-47.47-479.88L2096 878.05l-44.22 460.6-47.94-448.47-102.36 13.48 64.54 579.21h147.15l38.98-363.48 38.98 363.48h142.27l84.46-762.85 35.94-4.78z"/><path fill="#73789c" d="M2083.7 1557.18a112.82 112.82 0 0 0-108.45 81.76h216.9a112.82 112.82 0 0 0-108.45-81.76ZM2379.57 1557.18a112.82 112.82 0 0 0-108.45 81.76H2488a112.82 112.82 0 0 0-108.43-81.76Z" transform="translate(-121.06 -114.13)"/><path fill="#73789c" d="M2238.61 1522.15a161.15 161.15 0 0 0-154.91 116.78h309.82a161.15 161.15 0 0 0-154.91-116.78Z" transform="translate(-121.06 -114.13)"/><path fill="#3b3e54" d="M2078.42 1613.34a60.47 60.47 0 0 0-58.13 43.82h116.26a60.47 60.47 0 0 0-58.13-43.82ZM2237 1613.34a60.47 60.47 0 0 0-58.13 43.82h116.26a60.47 60.47 0 0 0-58.13-43.82Z" transform="translate(-121.06 -114.13)"/><path fill="#3b3e54" d="M2161.45 1594.56a86.38 86.38 0 0 0-83 62.6h166.06a86.38 86.38 0 0 0-83.06-62.6Z" transform="translate(-121.06 -114.13)"/><path fill="#d0f1f2" d="m1728.95 768.3 52.16-50.77 32.77 79.92 16.61-6.83-86.09-209.94-15.45 187.62z"/><path fill="#a5e4e6" d="m1744.51 580.28-.11.4 86.09 209.94 16.61-6.83-32.77-79.92 72.92-.66-142.74-122.93z"/><path fill="#fff" d="M2527.05 793.64a29.93 29.93 0 0 0 29.95-29.92 29.93 29.93 0 0 0 29.93 29.93 29.93 29.93 0 0 0-29.93 29.92 29.93 29.93 0 0 0-29.95-29.93ZM1603.86 913.29a29.93 29.93 0 0 0 29.93-29.93 29.93 29.93 0 0 0 29.93 29.93 29.93 29.93 0 0 0-29.93 29.93 29.93 29.93 0 0 0-29.93-29.93ZM2499.93 867.81a16.7 16.7 0 0 0 16.7-16.7 16.7 16.7 0 0 0 16.7 16.7 16.7 16.7 0 0 0-16.7 16.7 16.7 16.7 0 0 0-16.7-16.7ZM1767.72 1124.09a16.7 16.7 0 0 0 16.7-16.7 16.7 16.7 0 0 0 16.7 16.7 16.7 16.7 0 0 0-16.7 16.7 16.7 16.7 0 0 0-16.7-16.7ZM1058 1498.17a16.7 16.7 0 0 0 16.7-16.7 16.7 16.7 0 0 0 16.7 16.7 16.7 16.7 0 0 0-16.7 16.7 16.7 16.7 0 0 0-16.7-16.7Z" transform="translate(-121.06 -114.13)"/><path fill="#3b3e54" d="M2171.33 1622.21c-.1-.27-10.25-27.31-29.91-62.45-18.11-32.35-48.22-78.38-88.86-114l4.41-5c18.29 16 36 35.4 52.69 57.62a522 522 0 0 1 37.67 58.22c19.89 35.56 30.18 63 30.28 63.27Z" transform="translate(-121.06 -114.13)"/><circle cx="2050.09" cy="1440.71" r="12.42" fill="#3b3e54" transform="rotate(-20.05 1666.78 1726.074)"/><circle cx="2092.95" cy="1418.71" r="12.42" fill="#3b3e54" transform="rotate(-20.05 1709.639 1704.074)"/><circle cx="2061.27" cy="1524.32" r="12.42" fill="#3b3e54" transform="rotate(-20.05 1677.964 1809.663)"/><path fill="#3b3e54" d="m2101.27 1488-6.46 1.78c-.38-1.38-9.27-34.18-6.1-64.71l6.66.69c-3.04 29.24 5.81 61.9 5.9 62.24ZM2121.23 1525c-.22-.06-22.78-5.72-53.44.52l-1.33-6.56c32.27-6.56 55.49-.69 56.46-.44ZM2184.61 1604.38c-.06-.28-6.08-28.53-8.43-68.72-2.17-37-1.58-92 13.5-143.87l-6.43-1.87c-6.79 23.34-11.29 49.23-13.36 76.92a522 522 0 0 0-.38 69.34c2.39 40.68 8.5 69.33 8.56 69.62Z" transform="translate(-121.06 -114.13)"/><circle cx="2189.02" cy="1386.16" r="12.42" fill="#3b3e54" transform="rotate(-12.54 1608.237 1879.573)"/><circle cx="2141.06" cy="1390.7" r="12.42" fill="#3b3e54" transform="rotate(-12.54 1560.298 1884.116)"/><circle cx="2224.63" cy="1462.63" r="12.42" fill="#3b3e54" transform="rotate(-12.54 1643.822 1956.023)"/><path fill="#3b3e54" d="m2171.36 1453.56 6.4-2c-.42-1.37-10.6-33.79-29.71-57.81l-5.24 4.17c18.33 23.08 28.45 55.31 28.55 55.64ZM2174.45 1495.45c.16-.17 16.12-17.09 45.31-28.35l-2.41-6.25c-30.73 11.85-47.12 29.3-47.81 30Z" transform="translate(-121.06 -114.13)"/><path fill="#ffa9a6" d="m1128.27 769.26 55.37 55.36a315.66 315.66 0 0 1 224.08-92.82v-78.3a394 394 0 0 0-279.45 115.76Z" transform="translate(-121.06 -114.13)"/><path fill="#ff908c" d="m1631.79 824.63 55.37-55.36a394 394 0 0 0-279.45-115.75v78.3a315.66 315.66 0 0 1 224.08 92.82Z" transform="translate(-121.06 -114.13)"/><path fill="#ff908c" d="M1487.39 852.68a210 210 0 0 1 69.87 46.47l55.37-55.37a288.55 288.55 0 0 0-204.92-84.88v78.3a211 211 0 0 1 79.68 15.48Z" transform="translate(-121.06 -114.13)"/><path fill="#ffa9a6" d="m1202.8 843.79 55.37 55.37a210.26 210.26 0 0 1 149.55-61.95v-78.3a288.55 288.55 0 0 0-204.92 84.88ZM1338.22 877.8a183 183 0 0 0-60.89 40.52l55.37 55.37a104.86 104.86 0 0 1 75-31.07v-78.3a184 184 0 0 0-69.48 13.48Z" transform="translate(-121.06 -114.13)"/><path fill="#ff908c" d="M1447.78 950.36a105.17 105.17 0 0 1 34.95 23.33l55.37-55.37a183.16 183.16 0 0 0-130.39-54v78.3a106.11 106.11 0 0 1 40.07 7.74ZM1463.57 992.85a78.21 78.21 0 0 0-26-17.37 79.14 79.14 0 0 0-29.89-5.76v79Z" transform="translate(-121.06 -114.13)"/><path fill="#ffa9a6" d="m1351.86 992.85 55.86 55.86v-79a79.14 79.14 0 0 0-29.88 5.76 78.23 78.23 0 0 0-25.98 17.38Z" transform="translate(-121.06 -114.13)"/></svg>